<?xml version="1.0" encoding="utf-8"?>
<!-- Generator: Adobe Illustrator 27.1.0, SVG Export Plug-In . SVG Version: 6.00 Build 0)  -->
<svg version="1.1" id="Capa_1" xmlns="http://www.w3.org/2000/svg" xmlns:xlink="http://www.w3.org/1999/xlink" x="0px" y="0px"
	 viewBox="0 0 2000 684" style="enable-background:new 0 0 2000 684;" xml:space="preserve">
<style type="text/css">
	.st0{fill:#A81A39;}
	.st1{fill:#FFFFFF;}
</style>
<g>
	<g>
		<g>
			<g>
				<g>
					<path class="st0" d="M658.72,365.25v-324H138.66l0.13,323.35c-0.13,4.94-1.82,120,96.86,184.62l163.04,112.59L561.6,549.35
						C660.54,484.35,658.85,369.41,658.72,365.25z M547.04,527.77L398.69,630.22L250.35,527.77
						c-88.28-57.73-85.68-162.52-85.68-162.52V67.26h468.05v297.99C632.72,365.25,635.32,470.05,547.04,527.77z"/>
				</g>
			</g>
			<rect x="164.67" y="67.26" class="st1" width="468.05" height="179.29"/>
			<path class="st0" d="M547.04,527.77L398.69,630.22V246.55h234.03v118.7C632.72,365.25,635.32,470.05,547.04,527.77z"/>
			<path class="st1" d="M398.69,272.55v357.67L250.35,527.77c-88.28-57.73-85.68-162.52-85.68-162.52v-92.7H398.69z"/>
			<g>
				<g>
					<rect x="164.67" y="246.55" class="st0" width="468.05" height="26"/>
				</g>
			</g>
			<g>
				<g>
					<path class="st0" d="M267.8,173.16c0,3.47-0.23,6.02-0.76,8.41c-0.43,2.25-1.17,4.11-2.3,5.64c-0.95,1.39-2.3,2.45-4.19,3.32
						c-3.77,1.65-11.48,1.63-15.32,0.04c-1.92-0.91-3.24-1.98-4.19-3.37c-1.05-1.52-1.8-3.45-2.21-5.75c-0.43-2.22-0.65-5-0.65-8.28
						V103.2h-28.57v17.24h5.86v52.72c0,12.09,3.25,21.48,9.68,27.92c6.44,6.33,15.75,9.54,27.68,9.54c12.14,0,21.57-3.21,28-9.54
						c6.35-6.23,9.58-15.63,9.58-27.92V103.2h-22.6V173.16z"/>
					<path class="st0" d="M366.3,110.48c-3.43-2.72-7.54-4.67-12.2-5.76c-4.25-1.02-9.07-1.51-14.72-1.51h-39.09v17.22h6.88v88.26
						h22.41l-0.11-36.03h12.93c4.51,0,8.76-0.49,13.09-1.52c4.23-1.12,8.01-3.03,11.31-5.75c3.23-2.77,5.78-6.46,7.58-10.97
						c1.83-4.57,2.76-10.16,2.76-16.6c0-6.4-0.97-11.92-2.88-16.41C372.49,116.99,369.73,113.21,366.3,110.48z M354.14,138.24
						c0,2.06-0.21,4.29-0.65,6.98c-0.46,2.15-1.13,3.95-1.95,5.28c-0.99,1.5-2.16,2.62-3.5,3.4c-1.63,0.9-3.57,1.33-5.93,1.33
						h-12.54v-34.81h10.3c3.05,0,5.52,0.34,7.49,1.02c1.74,0.63,3.02,1.5,3.9,2.67c1.05,1.36,1.72,3.02,2.12,5.22
						C353.88,131.89,354.14,134.96,354.14,138.24z"/>
					<path class="st0" d="M448.46,161.64c2.55-1.99,4.74-4.45,6.52-7.31c1.59-2.53,2.79-5.49,3.65-9.07
						c0.73-3.05,1.1-6.51,1.1-10.28c0-6.65-1.12-11.95-3.43-16.23c-2.23-4.12-5.37-7.45-9.45-9.97c-3.75-2.15-8.06-3.62-13.27-4.55
						c-4.6-0.7-9.67-1.05-15.06-1.05h-35.84v17.24h7.68v88.26h22.6v-39.78h6.81l22.56,39.78h26.13l-25.85-43.61
						C444.86,164.08,446.83,162.93,448.46,161.64z M436.83,135.9c0,2.35-0.23,4.53-0.69,6.52c-0.52,1.89-1.24,3.39-2.3,4.69
						c-0.9,1.19-2.09,2.14-3.53,2.81c-1.25,0.48-3.31,1.05-6.12,1.05h-11.22v-30.14h7.38c5.42,0,9.47,1.18,12.4,3.6
						C435.49,126.72,436.83,130.47,436.83,135.9z"/>
					<polygon class="st0" points="471.76,120.43 478.43,120.43 478.43,208.79 501.44,208.79 501.44,103.2 471.76,103.2 					"/>
					<polygon class="st0" points="510.93,103.2 510.93,133.38 527.59,133.38 529.32,122.15 538.05,122.15 538.05,208.69 
						560.65,208.69 560.65,122.15 569.39,122.15 571.11,133.38 587.78,133.38 587.78,103.2 					"/>
				</g>
			</g>
			<g>
				<g>
					<g>
						
							<rect id="XMLID_00000027574227925323286240000003504140264806897321_" x="389.19" y="304.4" class="st0" width="9.39" height="14.08"/>
						<polygon id="XMLID_00000170239428083952267480000017701268042488473781_" class="st0" points="353.91,314.19 362.71,330.37 
							355,334.47 346.19,318.3 						"/>
						<polygon id="XMLID_00000141431284355926881620000003521800848253940614_" class="st0" points="321.12,337.26 336.2,348.7 
							330.96,355.7 315.88,344.25 						"/>
						<path class="st0" d="M342.55,381.53c36.73,7.21,54.96,24.13,56.14,25.97v10.1h-0.13c-1.57-2.23-23.74-20.99-61.91-28.2
							c-3.15-0.66-6.43-1.18-9.84-1.57c-5.25-0.79-10.62-1.18-16.4-1.31c-3.28,36.59-7.08,73.19-10.36,110.05
							c16.92,0.39,33.58,3.02,49.58,8.26c15.87,5.12,32.53,15.35,48.92,25.05h0.13v10.36h-0.13
							c-49.45-23.87-116.47-18.23-116.47-18.23l10.23-128.02h8l1.84-16.26c0,0,8.39-0.53,27.54,1.44L342.55,381.53z"/>
					</g>
					<g>
						<path class="st0" d="M398.56,334.44c-14.43,0.13-25.97,2.75-35.28,7.21c-0.13,0.13-0.26,0.13-0.26,0.13
							c-10.49,5.77-19.41,13.9-25.97,23.74c-0.52,0.66-0.92,1.44-1.31,2.23c-2.49,3.54-4.33,7.35-6.03,11.41
							c-1.18,2.75-2.1,5.64-2.89,8.66c3.41,0.39,6.69,0.92,9.84,1.57c7.61-27.02,32.4-46.83,61.91-46.83h0.13v-8.13H398.56z"/>
					</g>
				</g>
			</g>
			<g>
				<g>
					
						<rect id="XMLID_00000005981700849301116640000000448214295583830167_" x="399.21" y="304.4" class="st1" width="9.39" height="14.08"/>
					<polygon id="XMLID_00000011731574345285332330000006064316517854660503_" class="st1" points="443.89,314.19 435.08,330.37 
						442.79,334.47 451.61,318.3 					"/>
					<polygon id="XMLID_00000177481473001409020940000012616073472416475553_" class="st1" points="476.68,337.26 461.6,348.7 
						466.84,355.7 481.92,344.25 					"/>
					<path class="st1" d="M455.24,381.53c-36.73,7.21-54.96,24.13-56.14,25.97v10.1h0.13c1.57-2.23,23.74-20.99,61.91-28.2
						c3.15-0.66,6.43-1.18,9.84-1.57c5.25-0.79,10.62-1.18,16.4-1.31c3.28,36.59,7.08,73.19,10.36,110.05
						c-16.92,0.39-33.58,3.02-49.58,8.26c-15.87,5.12-32.53,15.35-48.92,25.05h-0.13v10.36h0.13
						c49.45-23.87,116.47-18.23,116.47-18.23l-10.23-128.02h-8l-1.84-16.26c0,0-8.39-0.53-27.54,1.44L455.24,381.53z"/>
				</g>
				<g>
					<path class="st1" d="M399.1,334.44v8.13h0.13c29.51,0,54.3,19.81,61.91,46.83c3.15-0.66,6.43-1.18,9.84-1.57
						c-0.79-3.02-1.71-5.9-2.89-8.66c-1.71-4.07-3.54-7.87-6.03-11.41c-0.39-0.79-0.79-1.57-1.31-2.23
						c-6.56-9.84-15.48-17.97-25.97-23.74c0,0-0.13,0-0.26-0.13c-9.31-4.46-20.86-7.08-35.28-7.21H399.1z"/>
				</g>
			</g>
		</g>
	</g>
	<g>
		<g>
			<path class="st0" d="M795.64,163.69v-63.08h28.28l0,63.08c0,25.41-12,43.08-30.25,50.48c-6.34,2.57-13.23,3.86-20.66,3.86
				c-25.36,0-41.34-13.45-48.34-32.22c-2.51-6.74-3.77-14.12-3.77-22.11v-63.08h28.28v63.08c0,16.06,8.41,28.28,23.83,28.28
				C787.83,191.98,795.64,179.33,795.64,163.69z"/>
			<path class="st0" d="M960.36,215.46h-23.31l-58.11-66.51v66.51h-28.28V100.62h23.48l58.11,68.56v-68.56h28.11V215.46z"/>
			<path class="st0" d="M987.43,215.46V100.62h28.28v114.85H987.43z"/>
			<path class="st0" d="M1110.16,215.46h-27.25l-48.85-114.85h31.2l31.2,76.11l31.37-76.11h31.2L1110.16,215.46z"/>
			<path class="st0" d="M1266.65,215.46h-89.48V100.62h88.96v24.34h-60.68v21.6h55.71v22.97h-55.71v21.6h61.19V215.46z"/>
			<path class="st0" d="M1360.58,174.66l36,40.8h-34.11l-34.63-39.43h-8.23v39.43h-28.28V100.62h58.11
				c23.63,0,41.31,14.38,41.31,37.54C1390.75,158.2,1377.63,170.88,1360.58,174.66z M1346.35,124.78h-26.74v27.6h26.74
				c9.24,0,16.63-5.03,16.63-13.88C1362.98,129.73,1355.44,124.78,1346.35,124.78z"/>
			<path class="st0" d="M1441.82,132.5c0,5.85,3.77,8.46,9.26,9.6l23.83,5.31c17.71,3.98,31.54,13.32,31.54,33.42
				c0,19.72-13.44,30.4-29.14,34.8c-5.71,1.6-11.77,2.4-18.17,2.4c-20.57,0-36.54-7.52-44.74-20.14c-2.86-4.4-4.69-9.29-5.49-14.66
				h31.27c3.42,7.29,10.7,11.31,20.49,11.31c8.79,0,16.97-3.71,16.97-11.83c0-6.52-4.36-8.82-10.63-10.11l-24-5.14
				c-20.57-4.68-30.85-15.77-30.85-33.25c0-23.61,20.79-36.17,45.42-36.17c25.04,0,43.16,12.54,47.48,33.25h-29.77
				c-3.13-5.99-9.88-10.46-18.05-10.46C1449.27,120.84,1441.82,125.03,1441.82,132.5z"/>
			<path class="st0" d="M1530.26,215.46V100.62h28.28v114.85H1530.26z"/>
			<path class="st0" d="M1631.05,100.62c29.29,0,49.73,13.49,58.45,34.28c2.97,7.08,4.46,14.8,4.46,23.14
				c0,18.35-7.21,32.21-17.31,41.48c-10.51,9.65-26.04,15.94-45.6,15.94h-45.42V100.62H1631.05z M1630.02,125.13h-16.11v65.82h16.11
				c20.6,0,35.48-12.59,35.48-32.91C1665.5,137.72,1650.62,125.13,1630.02,125.13z"/>
			<path class="st0" d="M1799.36,215.46l-8.06-20.91h-48.34l-8.06,20.91h-30.34l47.99-114.85h28.97l47.99,114.85H1799.36z
				 M1767.14,132.5l-14.57,37.71h29.31L1767.14,132.5z"/>
			<path class="st0" d="M1892.09,100.62c29.29,0,49.73,13.49,58.45,34.28c2.97,7.08,4.46,14.8,4.46,23.14
				c0,18.35-7.21,32.21-17.31,41.48c-10.51,9.65-26.04,15.94-45.6,15.94h-45.42V100.62H1892.09z M1891.06,125.13h-16.11v65.82h16.11
				c20.6,0,35.48-12.59,35.48-32.91C1926.54,137.72,1911.66,125.13,1891.06,125.13z"/>
		</g>
	</g>
	<g>
		<g>
			<g>
				<path class="st0" d="M776.27,332.28h-27.08v35.14H720.9V252.57h56.57c19.91,0,33.53,9.26,39.25,23.57
					c1.94,4.86,2.91,10.2,2.91,16.03C819.64,317.07,801.61,332.28,776.27,332.28z M774.21,276.74h-25.03v31.88h25.03
					c10.24,0,17.66-6.13,17.66-16.11C791.87,282.82,784.25,276.74,774.21,276.74z"/>
				<path class="st0" d="M903.96,326.62l36,40.8h-34.11l-34.63-39.42H863v39.42h-28.28V252.57h58.11
					c23.63,0,41.31,14.38,41.31,37.54C934.13,310.16,921.01,322.83,903.96,326.62z M889.74,276.74H863v27.6h26.74
					c9.24,0,16.63-5.04,16.63-13.89C906.36,281.69,898.83,276.74,889.74,276.74z"/>
				<path class="st0" d="M951.09,367.42V252.57h28.28v114.85H951.09z"/>
				<path class="st0" d="M1066.62,367.42h-27.25l-48.85-114.85h31.2l31.2,76.11l31.37-76.11h31.2L1066.62,367.42z"/>
				<path class="st0" d="M1211.46,367.42l-8.06-20.91h-48.34l-8.06,20.91h-30.34l47.99-114.85h28.97l47.99,114.85H1211.46z
					 M1179.23,284.46l-14.57,37.71h29.31L1179.23,284.46z"/>
				<path class="st0" d="M1296.98,252.57c29.29,0,49.73,13.49,58.45,34.28c2.97,7.08,4.46,14.8,4.46,23.14
					c0,18.35-7.21,32.21-17.31,41.48c-10.51,9.65-26.04,15.94-45.6,15.94h-45.42V252.57H1296.98z M1295.96,277.08h-16.11v65.82
					h16.11c20.6,0,35.48-12.59,35.48-32.91S1316.56,277.08,1295.96,277.08z"/>
				<path class="st0" d="M1460.67,367.42l-8.06-20.91h-48.34l-8.06,20.91h-30.34l47.99-114.85h28.97l47.99,114.85H1460.67z
					 M1428.45,284.46l-14.57,37.71h29.31L1428.45,284.46z"/>
			</g>
		</g>
		<g>
			<g>
				<path class="st0" d="M1585.69,252.57c29.29,0,49.73,13.49,58.45,34.28c2.97,7.08,4.46,14.8,4.46,23.14
					c0,18.35-7.21,32.21-17.31,41.48c-10.51,9.65-26.04,15.94-45.59,15.94h-45.42V252.57H1585.69z M1584.66,277.09h-16.11v65.82
					h16.11c20.6,0,35.48-12.59,35.48-32.91C1620.14,289.67,1605.26,277.09,1584.66,277.09z"/>
				<path class="st0" d="M1761.04,367.42h-89.48V252.57h88.96v24.34h-60.68v21.6h55.71v22.97h-55.71v21.6h61.19V367.42z"/>
			</g>
		</g>
	</g>
	<g>
		<path class="st0" d="M786.21,427v90.16H758.1V427h-37.2v-24.68h102.5V427H786.21z"/>
		<path class="st0" d="M913.05,476.37l36,40.8h-34.11l-34.63-39.42h-8.23v39.42H843.8V402.32h58.11c23.63,0,41.31,14.38,41.31,37.54
			C943.22,459.9,930.1,472.58,913.05,476.37z M898.82,426.49h-26.74v27.6h26.74c9.24,0,16.63-5.04,16.63-13.89
			C915.45,431.44,907.91,426.49,898.82,426.49z"/>
		<path class="st0" d="M1041.77,465.4v-63.08h28.28v63.08c0,25.41-12,43.08-30.25,50.48c-6.34,2.57-13.23,3.86-20.66,3.86
			c-25.36,0-41.34-13.45-48.34-32.23c-2.51-6.74-3.77-14.11-3.77-22.11v-63.08h28.28v63.08c0,16.06,8.41,28.28,23.83,28.28
			C1033.96,493.68,1041.77,481.03,1041.77,465.4z"/>
		<path class="st0" d="M1149.75,475.85v-73.54h28.28v73.54c0,21.18-11.81,34.72-27.51,40.63c-5.77,2.17-12.03,3.26-18.77,3.26
			c-25.8,0-42.6-15.86-45.94-38.57h28.43c2.23,7.84,8.04,13.37,17.51,13.37C1142.54,494.54,1149.75,486.67,1149.75,475.85z"/>
		<path class="st0" d="M1204.77,517.16V402.32h28.28v114.85H1204.77z"/>
		<path class="st0" d="M1344.98,517.16h-84.85V402.32h28.28v90.16h56.57V517.16z"/>
		<path class="st0" d="M1452.62,517.16h-84.85V402.32h28.28v90.16h56.57V517.16z"/>
		<path class="st0" d="M1572.26,417.32c9.81,9.72,17.83,24.33,17.83,42.6c0,18.21-8,32.71-17.83,42.34
			c-9.95,9.74-24.83,17.49-43.37,17.49c-18.53,0-33.43-7.76-43.37-17.49c-9.84-9.64-17.83-24.11-17.83-42.34
			c0-18.25,8.02-32.89,17.83-42.6c9.93-9.83,24.78-17.57,43.37-17.57C1547.46,399.75,1562.34,407.5,1572.26,417.32z M1559.31,473.28
			c1.66-4.23,2.49-8.68,2.49-13.37c0-15.09-8.18-26.59-19.28-31.37c-4.51-1.94-9.06-2.91-13.63-2.91
			c-14.66,0-25.65,8.82-30.08,19.97c-1.89,4.74-2.83,9.51-2.83,14.31c0,15.81,8.66,26.59,19.97,31.37
			c4.06,1.71,8.37,2.57,12.94,2.57C1544.42,493.85,1554.84,484.69,1559.31,473.28z"/>
	</g>
</g>
</svg>
